PathFileType	4	(X/Y/Z)	c:/Users/goper/Files/vsCode/490R/osim_files/C06/C06_Slow_07.trc
DataRate	CameraRate	NumFrames	NumMarkers	Units                	OrigDataRate	OrigDataStartFrame	OrigNumFrames
250.00	250.00	4	36	mm	250.0	1710	3418
                Frame#	Time	LPSIS			LASIS			LTH1			LTH2			LTH3			LTH4			LLFE			LMFE			LSH1			LSH2			LSH3			LSH4			LLMAL			LMMAL			LCAL			LMTP5			LTOE			LMTP1			RPSIS			RASIS			RTH1			RTH2			RTH3			RTH4			RLFE			RMFE			RSH1			RSH2			RSH3			RSH4			RLMAL			RMMAL			RCAL			RMTP1			RTOE			RMTP5		
		X1	Y1	Z1	X2	Y2	Z2	X3	Y3	Z3	X4	Y4	Z4	X5	Y5	Z5	X6	Y6	Z6	X7	Y7	Z7	X8	Y8	Z8	X9	Y9	Z9	X10	Y10	Z10	X11	Y11	Z11	X12	Y12	Z12	X13	Y13	Z13	X14	Y14	Z14	X15	Y15	Z15	X16	Y16	Z16	X17	Y17	Z17	X18	Y18	Z18	X19	Y19	Z19	X20	Y20	Z20	X21	Y21	Z21	X22	Y22	Z22	X23	Y23	Z23	X24	Y24	Z24	X25	Y25	Z25	X26	Y26	Z26	X27	Y27	Z27	X28	Y28	Z28	X29	Y29	Z29	X30	Y30	Z30	X31	Y31	Z31	X32	Y32	Z32	X33	Y33	Z33	X34	Y34	Z34	X35	Y35	Z35	X36	Y36	Z36

1710	6.83600	-220.39919	1009.17493	206.54210	-397.15582	986.02637	303.54367	-312.52914	782.62152	370.04666	-317.22733	720.12616	363.42499	-385.93146	784.06128	349.54916	-380.00446	722.27655	345.17096	-298.68604	471.59793	300.35474	-286.39755	460.60052	183.76848	-219.23015	367.24332	315.50323	-221.73076	323.77902	309.48508	-283.14346	364.23575	311.15643	-274.48441	321.33304	306.64670	-215.56905	89.23125	247.76701	-221.64859	114.77394	173.53200	-146.85327	70.54719	204.02513	-324.72339	29.48587	266.75159	-374.06458	52.32632	196.15500	-343.31674	36.90126	152.81293	-215.34048	1006.43793	134.85661	-395.48416	990.90955	66.88748	-371.18488	784.87701	-22.80282	-405.56476	731.87744	-20.02250	-437.38062	820.05304	-7.04924	-461.06561	761.82758	-6.57251	-516.19159	494.89719	20.07619	-548.31775	508.06213	126.62830	-443.44904	436.90826	9.38150	-432.71017	389.60477	8.29923	-500.32834	414.11761	9.70344	-482.21490	371.37781	9.72356	-382.90018	141.36519	48.50991	-409.44492	160.81123	124.00610	-317.77072	132.28146	102.08553	-509.87567	47.40855	116.40134	-528.87244	60.72614	65.60738	-471.48892	52.40158	7.35861
1711	6.84000	-224.36659	1008.71350	206.18140	-400.85394	985.52228	303.49814	-315.46515	782.46106	370.12210	-320.00101	719.96198	363.49109	-388.95828	783.54974	349.53802	-382.68710	721.81195	345.18472	-299.66785	471.57413	300.43332	-286.98428	460.68677	183.87245	-219.78822	367.43307	315.61823	-222.15843	323.93945	309.58099	-283.65457	364.25482	311.28027	-274.82858	321.43863	306.78732	-215.63795	89.28767	247.76794	-221.76122	114.92348	173.54204	-146.85611	70.60041	204.04214	-324.76294	29.28047	266.59558	-374.00626	52.32100	196.14859	-343.30505	36.88522	152.81978	-219.43069	1006.00360	134.53780	-399.68018	990.56036	66.80814	-375.96503	784.68896	-22.99710	-410.63663	731.80029	-20.19742	-442.05643	819.97327	-7.06593	-466.22275	762.14600	-7.50945	-521.90045	494.79486	20.45677	-553.32001	508.43820	127.08717	-450.45569	434.80853	9.08759	-440.88104	387.41269	8.19660	-507.90506	413.51654	9.98384	-490.92560	370.27792	10.07714	-397.78543	137.82022	48.58983	-423.92847	157.89803	124.04185	-332.81104	126.97274	102.26036	-527.36926	47.21748	116.08021	-545.90369	61.09295	65.21834	-488.75412	51.33286	7.08422
1712	6.84400	-228.39796	1008.20825	205.79214	-404.76859	985.10083	303.48602	-318.54956	782.32062	370.15994	-322.72006	719.78888	363.60092	-391.91095	783.02490	349.51736	-385.40137	721.31934	345.21066	-300.55240	471.53427	300.49664	-287.61728	460.76447	183.91548	-220.30537	367.64706	315.73434	-222.54388	324.13306	309.64655	-284.19641	364.28201	311.36343	-275.69550	321.38959	306.67267	-215.72226	89.36758	247.75681	-221.87192	115.04490	173.53378	-146.88155	70.64607	204.00076	-324.78738	29.26567	266.58972	-373.98553	52.25547	196.11665	-343.31128	36.86287	152.84238	-223.60071	1005.53381	134.13570	-403.93796	990.15039	66.76984	-380.70331	784.49127	-23.16990	-415.49197	731.59521	-20.37037	-446.72772	819.91986	-7.11257	-471.13046	762.13367	-7.54145	-527.82544	494.91797	20.84163	-558.06866	508.55594	127.49963	-457.48615	432.58777	8.64971	-449.12103	384.94019	8.05568	-515.43176	412.81998	10.22461	-499.58032	369.16391	10.30096	-412.36374	134.39481	48.91844	-438.36823	155.06235	124.13026	-349.02045	121.03617	102.62580	-544.93109	47.49785	115.33463	-562.95703	61.72355	64.89774	-505.97919	50.54161	6.69967
1713	6.84800	-232.36903	1007.83514	205.35696	-408.44846	984.61389	303.43744	-321.60483	782.18439	370.23843	-325.39221	719.61951	363.65506	-394.98419	782.53955	349.44122	-388.55774	720.63318	345.09393	-301.59454	471.46884	300.53116	-288.29153	460.84952	183.98364	-220.83690	367.83105	315.77295	-223.13452	324.28989	309.68646	-284.75952	364.38089	311.45258	-276.04727	321.37347	306.35202	-215.89206	89.46371	247.74271	-222.02429	115.17715	173.51085	-146.92117	70.72575	203.96754	-324.81461	29.26488	266.58499	-373.98776	52.25677	196.04285	-342.81897	37.01335	152.88644	-227.71922	1005.07037	133.79964	-408.09134	989.71008	66.70770	-385.60526	784.19135	-23.50292	-420.43497	731.38867	-20.56406	-451.39206	819.68805	-7.07742	-476.22614	762.14331	-7.15109	-533.08264	494.60233	21.23289	-562.70728	508.66577	127.96510	-464.63849	430.09604	8.39568	-457.36188	382.47949	7.74069	-522.92474	412.13910	10.46312	-508.25903	368.03143	10.55876	-427.55826	130.94545	48.62630	-452.98413	152.36575	124.13048	-364.38611	116.07572	102.77193	-562.35303	47.68743	114.92628	-579.91058	62.37607	64.62372	-523.04663	49.57821	6.60838
